<svg width="57" height="38" viewBox="0 0 57 38" fill="none" xmlns="http://www.w3.org/2000/svg">
<path d="M7.04 35.9185C5.22667 36.9052 3.82667 36.8385 2.84 35.7185C1.48 34.1452 2.08 32.6652 4.64 31.2785C10.1067 27.7585 13.6133 22.5852 15.16 15.7585H3.96C2.33333 15.7585 1.52 14.9319 1.52 13.2785C1.52 11.6519 2.33333 10.8385 3.96 10.8385H15.96C16.2 8.67853 16.32 5.91853 16.32 2.55853C16.3467 0.958535 17.2 0.158535 18.88 0.158535C20.6133 0.158535 21.4667 0.971868 21.44 2.59853C21.3867 5.9852 21.24 8.73187 21 10.8385H28.8H34.16C35.7867 10.8385 36.6 11.6519 36.6 13.2785C36.6 14.9319 35.7867 15.7585 34.16 15.7585H22.64C24.96 22.7719 28.76 27.9052 34.04 31.1585C35.1867 31.7452 35.88 32.3585 36.12 32.9985C36.3867 33.7185 36.16 34.5452 35.44 35.4785C34.9067 36.1719 34.3067 36.5452 33.64 36.5985C33.0533 36.6785 32.3333 36.4919 31.48 36.0385C26.0933 32.7585 21.9733 27.5452 19.12 20.3985C16.9867 27.1452 12.96 32.3185 7.04 35.9185ZM45.66 35.5285C44.784 35.5525 44.238 35.2645 44.022 34.6645C43.698 33.7525 44.154 33.3205 45.39 33.3685C45.57 33.3685 45.804 33.3625 46.092 33.3505C46.236 33.3505 46.332 33.3505 46.38 33.3505C46.74 33.3505 46.92 33.1945 46.92 32.8825V25.9525V20.1385C46.92 19.3825 47.304 19.0045 48.072 19.0045C48.828 19.0045 49.206 19.3825 49.206 20.1385V32.8825C49.206 33.5305 49.122 34.0225 48.954 34.3585C48.798 34.7065 48.522 34.9645 48.126 35.1325C47.574 35.3605 46.752 35.4925 45.66 35.5285ZM55.578 31.3705C55.122 31.5505 54.774 31.5865 54.534 31.4785C54.27 31.3705 54.09 31.0945 53.994 30.6505C53.778 29.8465 53.478 28.9525 53.094 27.9685C52.722 26.9725 52.254 25.8985 51.69 24.7465C51.342 24.0505 51.54 23.5585 52.284 23.2705C52.92 23.0305 53.4 23.2045 53.724 23.7925C54.984 26.1325 55.866 28.2265 56.37 30.0745C56.454 30.4225 56.43 30.6925 56.298 30.8845C56.178 31.0645 55.938 31.2265 55.578 31.3705ZM41.538 31.2085C41.298 31.2685 41.01 31.2085 40.674 31.0285C40.278 30.8125 40.044 30.5785 39.972 30.3265C39.9 30.0745 39.99 29.7625 40.242 29.3905C40.998 28.0345 41.592 26.3245 42.024 24.2605C42.168 23.4805 42.636 23.1625 43.428 23.3065C44.256 23.4505 44.574 23.9185 44.382 24.7105C44.118 25.7905 43.818 26.8165 43.482 27.7885C43.098 28.8925 42.672 29.8465 42.204 30.6505C42 30.9625 41.778 31.1485 41.538 31.2085Z" fill="white"/>
</svg>
