<svg width="263" height="97" viewBox="0 0 263 97" fill="none" xmlns="http://www.w3.org/2000/svg">
<path d="M96.1671 48.5C96.1671 74.1588 75.1097 95 49.0836 95C23.0574 95 2 74.1588 2 48.5C2 22.8412 23.0574 2 49.0836 2C75.1097 2 96.1671 22.8412 96.1671 48.5Z" fill="#FFC800" stroke="url(#paint0_linear_1201_5441)" stroke-width="4"/>
<path d="M254.972 82.5222C253.689 82.5222 253.047 81.8881 253.047 80.6199V75.2255V69.4924C253.047 68.45 253.592 67.9288 254.682 67.9288C255.702 67.9288 256.264 68.4066 256.37 69.3621L256.475 70.5087H256.581C257.108 69.5706 257.75 68.8409 258.506 68.3197C259.245 67.8159 260.001 67.564 260.774 67.564C260.897 67.564 261.012 67.564 261.117 67.564C261.592 67.6682 261.917 67.9027 262.093 68.2676C262.251 68.615 262.278 69.0407 262.172 69.5445C261.926 70.639 261.319 71.1081 260.352 70.9517C260.335 70.9517 260.317 70.9517 260.3 70.9517C259.649 70.9517 259.042 71.1689 258.48 71.6032C257.812 72.0897 257.284 72.828 256.897 73.8183V80.6199C256.897 81.8881 256.256 82.5222 254.972 82.5222Z" fill="#FFC800"/>
<path d="M244.131 82.8871C242.021 82.8871 240.289 82.2095 238.935 80.8544C237.511 79.4646 236.799 77.5969 236.799 75.2516C236.799 72.9757 237.502 71.0994 238.909 69.6227C240.245 68.2502 241.836 67.564 243.682 67.564C245.651 67.564 247.19 68.2241 248.298 69.5445C249.335 70.7954 249.854 72.4632 249.854 74.548C249.854 74.8607 249.836 75.2255 249.801 75.6425C249.766 75.8162 249.66 75.9726 249.484 76.1115C249.309 76.2332 249.106 76.294 248.878 76.294H245.106H240.57C240.728 77.4753 241.177 78.3787 241.915 79.0042C242.619 79.6296 243.533 79.9423 244.658 79.9423C245.379 79.9423 246.065 79.812 246.715 79.5514C247.559 79.1171 248.21 79.3169 248.667 80.1508C249.071 80.9152 248.931 81.4972 248.245 81.8968C246.909 82.557 245.537 82.8871 244.131 82.8871ZM240.517 73.7662H243.524H246.531C246.531 72.7412 246.302 71.9507 245.845 71.3947C245.37 70.8214 244.667 70.5348 243.735 70.5348C242.926 70.5348 242.232 70.8041 241.652 71.3426C241.036 71.9333 240.658 72.7412 240.517 73.7662Z" fill="#FFC800"/>
<path d="M231.638 82.5224C230.355 82.5224 229.713 81.8883 229.713 80.6201V69.8313C229.713 68.5631 230.355 67.929 231.638 67.929C232.922 67.929 233.563 68.5631 233.563 69.8313V75.2257V80.6201C233.563 81.8883 232.922 82.5224 231.638 82.5224ZM231.665 65.5836C230.996 65.5836 230.443 65.3925 230.003 65.0103C229.564 64.6107 229.344 64.1069 229.344 63.4988C229.344 62.8734 229.564 62.3696 230.003 61.9874C230.443 61.6052 230.996 61.4141 231.665 61.4141C232.333 61.4141 232.878 61.6052 233.3 61.9874C233.739 62.3696 233.959 62.8734 233.959 63.4988C233.959 64.0895 233.739 64.5847 233.3 64.9842C232.878 65.3838 232.333 65.5836 231.665 65.5836Z" fill="black"/>
<path d="M214.769 82.5222C213.486 82.5222 212.844 81.8881 212.844 80.6198V72.1244V63.6289C212.844 62.3607 213.486 61.7266 214.769 61.7266C216.053 61.7266 216.694 62.3607 216.694 63.6289V66.9646L216.536 69.7008C218.083 68.2762 219.63 67.5639 221.178 67.5639C224.219 67.5639 225.74 69.5184 225.74 73.4274V80.6198C225.74 81.8881 225.099 82.5222 223.815 82.5222C222.514 82.5222 221.863 81.8881 221.863 80.6198V73.8964C221.863 72.7846 221.696 72.0028 221.362 71.5511C221.046 71.082 220.518 70.8475 219.78 70.8475C219.217 70.8475 218.69 70.9864 218.198 71.2644C217.811 71.4903 217.31 71.8985 216.694 72.4892V80.6198C216.694 81.8881 216.053 82.5222 214.769 82.5222Z" fill="black"/>
<path d="M207.174 82.8872C203.939 82.8872 202.322 81.0631 202.322 77.4147V70.9519H201.662C200.713 70.9519 200.238 70.4655 200.238 69.4926C200.238 68.5718 200.687 68.0766 201.583 68.0072L202.506 67.929L202.796 65.5054C202.902 64.5152 203.473 64.02 204.511 64.02C205.636 64.02 206.199 64.5499 206.199 65.6097V67.929H208.309C209.328 67.929 209.838 68.4328 209.838 69.4404C209.838 70.4481 209.328 70.9519 208.309 70.9519H206.199V74.1833V77.4147C206.199 79.0478 206.867 79.8643 208.203 79.8643C208.221 79.8643 208.238 79.8643 208.256 79.8643C209.17 79.6558 209.741 80.0294 209.97 80.9849C210.163 81.8883 209.882 82.4442 209.126 82.6527C208.458 82.8091 207.807 82.8872 207.174 82.8872Z" fill="black"/>
<path d="M197.089 82.887C194.662 82.887 193.449 81.4016 193.449 78.4308V63.6289C193.449 62.3607 194.091 61.7266 195.374 61.7266C196.658 61.7266 197.3 62.3607 197.3 63.6289V70.1699V78.6133C197.3 79.3777 197.563 79.7599 198.091 79.7599C198.108 79.7599 198.126 79.7599 198.144 79.7599C198.284 79.7425 198.416 79.8207 198.539 79.9944C198.645 80.1508 198.715 80.3158 198.75 80.4895C198.838 80.9934 198.838 81.4624 198.75 81.8968C198.627 82.4353 198.39 82.7481 198.038 82.8349C197.651 82.8697 197.335 82.887 197.089 82.887Z" fill="black"/>
<path d="M181.507 82.8871C180.206 82.8871 179.151 82.4788 178.342 81.6623C177.533 80.8457 177.129 79.812 177.129 78.5612C177.129 76.9976 177.797 75.7901 179.133 74.9389C180.487 74.0702 182.65 73.4795 185.621 73.1668C185.551 71.4816 184.716 70.639 183.116 70.639C182.307 70.639 181.419 70.8562 180.452 71.2905C179.52 71.7596 178.817 71.5685 178.342 70.7172C177.885 69.9007 178.052 69.2752 178.843 68.8409C180.513 67.9896 182.175 67.564 183.828 67.564C185.691 67.564 187.098 68.1112 188.047 69.2057C189.014 70.2829 189.498 71.8812 189.498 74.0007V78.2745V80.9587C189.498 82.001 188.935 82.5222 187.81 82.5222C186.825 82.5222 186.245 82.0705 186.069 81.1671L186.043 80.9587H185.964C184.452 82.2443 182.966 82.8871 181.507 82.8871ZM182.773 79.8902C183.705 79.8902 184.654 79.4124 185.621 78.4569V75.5122C183.951 75.738 182.702 76.0855 181.876 76.5546C181.173 77.0063 180.821 77.5709 180.821 78.2484C180.821 79.3429 181.472 79.8902 182.773 79.8902Z" fill="black"/>
<path d="M169.312 82.8871C167.202 82.8871 165.471 82.2095 164.117 80.8544C162.693 79.4646 161.98 77.5969 161.98 75.2516C161.98 72.9757 162.684 71.0994 164.09 69.6227C165.427 68.2502 167.018 67.564 168.864 67.564C170.833 67.564 172.372 68.2241 173.479 69.5445C174.517 70.7954 175.035 72.4632 175.035 74.548C175.035 74.8607 175.018 75.2255 174.982 75.6425C174.947 75.8162 174.842 75.9726 174.666 76.1115C174.49 76.2332 174.288 76.294 174.059 76.294H170.288H165.752C165.91 77.4753 166.358 78.3787 167.097 79.0042C167.8 79.6296 168.714 79.9423 169.84 79.9423C170.561 79.9423 171.246 79.812 171.897 79.5514C172.741 79.1171 173.391 79.3169 173.848 80.1508C174.253 80.9152 174.112 81.4972 173.426 81.8968C172.09 82.557 170.719 82.8871 169.312 82.8871ZM165.699 73.7662H168.706H171.712C171.712 72.7412 171.484 71.9507 171.026 71.3947C170.552 70.8214 169.848 70.5348 168.917 70.5348C168.108 70.5348 167.413 70.8041 166.833 71.3426C166.218 71.9333 165.84 72.7412 165.699 73.7662Z" fill="black"/>
<path d="M147.958 82.5222C146.675 82.5222 146.033 81.8881 146.033 80.6198V72.1244V63.6289C146.033 62.3607 146.675 61.7266 147.958 61.7266C149.242 61.7266 149.884 62.3607 149.884 63.6289V66.9646L149.725 69.7008C151.273 68.2762 152.82 67.5639 154.367 67.5639C157.409 67.5639 158.93 69.5184 158.93 73.4274V80.6198C158.93 81.8881 158.288 82.5222 157.004 82.5222C155.703 82.5222 155.053 81.8881 155.053 80.6198V73.8964C155.053 72.7846 154.886 72.0028 154.552 71.5511C154.235 71.082 153.708 70.8475 152.969 70.8475C152.407 70.8475 151.879 70.9864 151.387 71.2644C151 71.4903 150.499 71.8985 149.884 72.4892V80.6198C149.884 81.8881 149.242 82.5222 147.958 82.5222Z" fill="black"/>
<path d="M129.721 82.8871C127.787 82.8871 126.143 82.2182 124.79 80.8805C123.348 79.4385 122.627 77.5622 122.627 75.2516C122.627 72.9062 123.348 71.0125 124.79 69.5706C126.126 68.2328 127.77 67.564 129.721 67.564C131.655 67.564 133.299 68.2328 134.653 69.5706C136.095 71.0299 136.816 72.9236 136.816 75.2516C136.816 77.5622 136.095 79.4385 134.653 80.8805C133.299 82.2182 131.655 82.8871 129.721 82.8871ZM129.721 79.7599C130.706 79.7599 131.48 79.3516 132.042 78.5351C132.587 77.7359 132.86 76.6414 132.86 75.2516C132.86 73.8444 132.587 72.7412 132.042 71.942C131.48 71.1081 130.706 70.6911 129.721 70.6911C128.719 70.6911 127.946 71.1081 127.401 71.942C126.855 72.7412 126.583 73.8444 126.583 75.2516C126.583 76.6414 126.855 77.7359 127.401 78.5351C127.963 79.3516 128.737 79.7599 129.721 79.7599Z" fill="black"/>
<path d="M113.349 82.8874C110.588 82.8874 108.364 82.0361 106.676 80.3335C104.883 78.5441 103.986 76.0858 103.986 72.9586C103.986 69.8662 104.901 67.3906 106.729 65.5316C108.452 63.7596 110.659 62.8735 113.349 62.8735C115.265 62.8735 116.953 63.4121 118.413 64.4892C118.764 64.802 118.94 65.1234 118.94 65.4534C118.922 65.7488 118.747 66.0963 118.413 66.4958C117.692 67.3645 116.9 67.4774 116.039 66.8346C115.283 66.4003 114.43 66.1831 113.481 66.1831C111.828 66.1831 110.501 66.7738 109.498 67.9552C108.479 69.1539 107.969 70.7783 107.969 72.8283C107.969 74.9652 108.452 76.607 109.419 77.7536C110.421 78.9524 111.863 79.5517 113.744 79.5517C114.799 79.5517 115.617 79.3085 116.197 78.8221V75.0174H114.325C113.27 75.0174 112.742 74.4875 112.742 73.4277C112.742 72.3853 113.27 71.8641 114.325 71.8641H116.197H118.017C118.527 71.8641 118.931 72.0118 119.23 72.3071C119.529 72.6025 119.678 73.0021 119.678 73.5059V79.656C119.678 80.2467 119.476 80.7244 119.072 81.0893C117.489 82.288 115.582 82.8874 113.349 82.8874Z" fill="black"/>
<g filter="url(#filter0_d_1201_5441)">
<path d="M206.017 53.909C205.361 54.8009 204.499 54.9765 203.433 54.436C201.983 53.6793 201.655 52.6929 202.448 51.4768C202.886 50.612 203.241 49.7202 203.515 48.8013C203.706 48.0176 204.075 47.4636 204.622 47.1393C205.169 46.815 205.826 46.7745 206.592 47.0177L207.822 47.3825V47.3015C207.795 47.0853 207.877 46.8961 208.069 46.7339C208.287 46.5448 208.533 46.4367 208.807 46.4096C209.436 46.3286 209.997 46.3961 210.489 46.6123C211.063 46.8555 211.392 47.2339 211.474 47.7474C211.692 49.477 211.829 50.8147 211.884 51.7606C211.911 52.7605 211.364 53.328 210.243 53.4631C208.903 53.6253 208.233 53.0848 208.233 51.8416C208.205 50.6525 208.096 49.3418 207.904 47.9095C207.604 49.504 207.262 50.8417 206.879 51.9227C206.633 52.6254 206.345 53.2875 206.017 53.909ZM225.463 55.2062C224.506 55.2062 223.699 54.99 223.043 54.5576C222.304 54.0712 221.935 53.4226 221.935 52.6118V51.5173L221.853 51.5579C219.692 52.4227 218.161 51.7335 217.258 49.4905C216.356 47.2474 216.985 45.7475 219.145 44.9908L219.227 44.9503C212.937 45.2476 208.028 45.4638 204.499 45.5989C203.706 45.6259 203.146 45.4502 202.817 45.0719C202.516 44.6936 202.352 44.0855 202.325 43.2477C202.27 41.5992 202.995 40.7614 204.499 40.7344C205.019 40.7074 205.826 40.6939 206.92 40.6939C207.986 40.6668 208.793 40.6533 209.34 40.6533V39.3967H205.525C204.048 39.3967 203.31 38.667 203.31 37.2077C203.31 35.7483 204.048 35.0186 205.525 35.0186H209.34V33.8431H205.73C204.937 33.8431 204.294 33.5998 203.802 33.1134C203.31 32.6269 203.063 31.9919 203.063 31.2081V20.4658C203.063 19.682 203.31 19.0469 203.802 18.5605C204.294 18.074 204.937 17.8308 205.73 17.8308H212.048H218.366C219.159 17.8308 219.802 18.074 220.294 18.5605C220.786 19.0469 221.032 19.682 221.032 20.4658V31.2081C221.032 31.9919 220.786 32.6269 220.294 33.1134C219.802 33.5998 219.159 33.8431 218.366 33.8431H214.509V35.0186H218.489C219.966 35.0186 220.704 35.7483 220.704 37.2077C220.704 38.667 219.966 39.3967 218.489 39.3967H214.509V40.4912C215.002 40.4642 215.74 40.4371 216.725 40.4101C217.737 40.3831 218.489 40.3696 218.981 40.3696C220.595 40.3155 221.374 41.1398 221.32 42.8423C221.265 44.1666 220.622 44.8692 219.391 44.9503H219.309C220.458 46.7069 221.333 48.4905 221.935 50.3012V38.4643C221.935 37.6806 222.181 37.0455 222.673 36.5591C223.166 36.0726 223.808 35.8294 224.602 35.8294H227.063V19.5739C227.063 17.7092 228.02 16.7769 229.935 16.7769C231.822 16.7769 232.766 17.7092 232.766 19.5739V24.8843H237.442C239.275 24.8843 240.191 25.7896 240.191 27.6003C240.191 29.411 239.275 30.3163 237.442 30.3163H232.766V35.8294H236.253C237.046 35.8294 237.689 36.0726 238.181 36.5591C238.673 37.0455 238.919 37.6806 238.919 38.4643V51.193C238.919 51.9768 238.673 52.6118 238.181 53.0983C237.689 53.5847 237.046 53.828 236.253 53.828H227.227V53.909C227.227 54.3144 227.036 54.6387 226.653 54.8819C226.325 55.0981 225.928 55.2062 225.463 55.2062ZM215.248 52.9361C213.99 53.2064 213.279 52.7335 213.115 51.5173C213.06 51.193 212.951 50.6796 212.786 49.9769C212.622 49.1662 212.486 48.5581 212.376 48.1527C212.021 46.9907 212.458 46.3015 213.689 46.0853C214.756 45.9232 215.426 46.315 215.699 47.2609C216.109 48.5041 216.424 49.7877 216.643 51.112C216.78 52.0849 216.315 52.6929 215.248 52.9361ZM227.227 48.5176H232.314C232.971 48.5176 233.299 48.1933 233.299 47.5447V42.1127C233.299 41.4641 232.971 41.1398 232.314 41.1398H228.212C227.555 41.1398 227.227 41.4641 227.227 42.1127V44.8287V48.5176ZM208.356 29.992H210.202V28.2895L209.012 28.6948C208.383 28.911 208.041 28.6948 207.986 28.0462C207.986 27.9381 207.959 27.776 207.904 27.5598C207.877 27.3436 207.85 27.1814 207.822 27.0733C207.74 26.5869 207.59 25.8572 207.371 24.8843V29.0191C207.371 29.6677 207.699 29.992 208.356 29.992ZM213.648 29.992H215.535C216.191 29.992 216.52 29.6677 216.52 29.0191V25.8978C216.438 26.0599 216.342 26.2896 216.233 26.5869C216.041 27.0193 215.904 27.3436 215.822 27.5598C215.713 27.8841 215.59 28.1678 215.453 28.4111C215.262 28.7894 214.974 28.8975 214.592 28.7354L213.648 28.3705V29.992ZM213.648 26.749C213.894 26.0194 214.099 25.2897 214.263 24.56C214.318 24.3438 214.4 24.0195 214.509 23.5871C214.537 23.506 214.55 23.4385 214.55 23.3844C214.633 22.8439 214.974 22.6683 215.576 22.8575L216.52 23.1818V22.2899C216.52 21.8846 216.315 21.6819 215.904 21.6819H213.648V26.749ZM210.202 26.2626V21.6819H208.356C207.699 21.6819 207.371 22.0062 207.371 22.6548V23.1412L208.438 22.8169C208.657 22.7358 208.862 22.7494 209.053 22.8575C209.272 22.9385 209.409 23.0872 209.463 23.3034C209.491 23.4115 209.532 23.5871 209.586 23.8303C209.669 24.0736 209.723 24.2627 209.751 24.3979C209.942 25.1275 210.092 25.7491 210.202 26.2626Z" fill="black"/>
</g>
<g filter="url(#filter1_d_1201_5441)">
<path d="M177.505 53.7875C176.821 54.2199 176.138 54.382 175.454 54.2739C174.77 54.1658 174.223 53.801 173.813 53.1794C173.293 52.5579 172.856 52.0579 172.5 51.6796V51.7606C172.5 52.0579 172.213 52.3146 171.639 52.5308C171.146 52.72 170.681 52.8146 170.244 52.8146C169.669 52.8146 169.068 52.693 168.439 52.4498C167.673 52.1795 167.29 51.8417 167.29 51.4363V51.3553H163.516V51.4363C163.516 52.9497 162.722 53.7064 161.136 53.7064C159.413 53.7064 158.552 52.8957 158.552 51.2742V49.0852C158.305 50.031 158.018 50.9093 157.69 51.7201C157.198 52.747 156.664 53.3551 156.09 53.5443C155.488 53.7334 154.75 53.5037 153.875 52.8551C153.109 52.2876 152.658 51.666 152.521 50.9904C152.411 50.3688 152.562 49.5986 152.972 48.6798C153.902 46.2205 154.545 43.2478 154.9 39.7616C155.119 37.4374 155.229 34.5593 155.229 31.1271V21.9252C155.229 21.1685 155.461 20.5469 155.926 20.0604C156.391 19.547 157.034 19.2497 157.854 19.1686C161.601 18.7362 164.842 18.1552 167.577 17.4255C168.233 17.2363 168.808 17.2228 169.3 17.385C169.738 17.5471 170.23 17.8849 170.777 18.3984C172.746 20.2631 172.432 21.5063 169.833 22.1278C167.208 22.6954 164.145 23.1683 160.644 23.5467V25.2492H166.51H169.71C170.504 25.2492 171.146 25.4924 171.639 25.9789C172.131 26.4653 172.377 27.1004 172.377 27.8841V33.681C174.127 30.3839 175.386 25.8438 176.151 20.0604C176.261 19.0605 176.603 18.3173 177.177 17.8309C177.751 17.3444 178.517 17.1553 179.474 17.2634C181.389 17.5066 182.223 18.5741 181.977 20.4658C181.977 20.5199 181.963 20.5874 181.936 20.6685C181.744 22.1819 181.567 23.2899 181.403 23.9926H188.254C189.129 23.9926 189.813 24.3169 190.305 24.9655C190.77 25.56 191.002 26.3437 191.002 27.3166C191.002 27.9112 190.866 28.3976 190.592 28.776C190.264 29.2084 189.826 29.4246 189.279 29.4246H189.197C188.459 35.0998 187.173 39.9237 185.341 43.8964C186.189 45.1666 187.16 46.3421 188.254 47.4231C189.375 48.315 190.018 49.1392 190.182 49.8959C190.346 50.7337 190.004 51.666 189.156 52.693C188.39 53.6118 187.625 54.0713 186.859 54.0713C186.12 54.0442 185.273 53.5983 184.315 52.7335C183.467 51.8687 182.647 50.8418 181.854 49.6527C180.568 51.2472 179.119 52.6254 177.505 53.7875ZM172.5 48.4771C172.5 49.1257 172.787 49.2743 173.362 48.923C175.522 47.5447 177.314 45.8287 178.736 43.7748C178.079 42.2614 177.423 40.3291 176.767 37.9779C176.712 38.086 176.616 38.2482 176.48 38.4644C176.315 38.7887 176.179 39.0184 176.069 39.1535C175.905 39.3967 175.714 39.5319 175.495 39.5589C175.303 39.5859 175.126 39.5184 174.962 39.3562C174.168 38.4103 173.239 37.451 172.172 36.4781H160.48C160.425 37.505 160.37 38.2752 160.316 38.7887H166.387H169.833C170.627 38.7887 171.269 39.0319 171.762 39.5184C172.254 40.0048 172.5 40.6399 172.5 41.4236V48.4771ZM163.516 46.734H167.29V44.3828C167.29 43.7342 166.962 43.4099 166.305 43.4099H165.403H163.516V46.734ZM181.936 37.2077C182.401 35.8295 182.756 34.5863 183.003 33.4783C183.358 32.1 183.632 30.7488 183.823 29.4246H180.131L179.926 30.0732C180.418 32.3703 181.088 34.7485 181.936 37.2077ZM160.644 31.8163H163.885H167.167V30.7218C167.167 30.1542 166.88 29.8705 166.305 29.8705H160.644V31.1271V31.8163Z" fill="black"/>
</g>
<g filter="url(#filter2_d_1201_5441)">
<path d="M127.865 54.8414C126.989 54.8144 126.265 54.5846 125.69 54.1522C125.143 53.7198 124.801 53.1523 124.665 52.4497C124.583 52.1794 124.501 51.8957 124.419 51.5984C123.981 50.6796 123.94 49.9769 124.295 49.4905C124.678 49.004 125.472 48.7878 126.675 48.8419C127.277 48.8689 128.015 48.8824 128.89 48.8824C129.656 48.8824 130.285 48.6527 130.777 48.1933C131.379 47.5987 131.871 45.9502 132.254 43.2477C132.637 40.5452 132.979 36.4645 133.28 31.0054H123.188C122.422 40.9236 118.634 48.3689 111.824 53.3415C110.812 53.9631 109.868 54.3144 108.993 54.3955C107.954 54.4765 107.092 54.1522 106.409 53.4226C105.479 52.4497 105.246 51.4362 105.711 50.3823C106.121 49.4905 106.997 48.6121 108.337 47.7474C113.26 43.7477 116.09 38.167 116.829 31.0054H108.091C106.067 31.0054 105.055 29.992 105.055 27.9651C105.055 25.9653 106.067 24.9654 108.091 24.9654H117.075V19.9388C117.075 17.8578 118.128 16.8174 120.234 16.8174C122.34 16.8174 123.393 17.8578 123.393 19.9388V24.9654H131.516H136.931C137.834 24.9654 138.49 25.3167 138.9 26.0194C139.338 26.8301 139.502 28.2084 139.393 30.1542C139.01 37.4509 138.586 42.6667 138.121 45.8016C137.656 48.9364 137.013 51.0174 136.193 52.0443C135.564 52.8821 134.866 53.4901 134.1 53.8685C133.471 54.1928 132.651 54.436 131.639 54.5982C130.654 54.7603 129.396 54.8414 127.865 54.8414Z" fill="black"/>
</g>
<g filter="url(#filter3_d_1201_5441)">
<path d="M61.3623 51.8821C60.1863 53.8279 58.7231 54.0981 56.9727 52.6928C56.1522 52.0442 55.6735 51.3956 55.5368 50.747C55.4 50.0984 55.6188 49.3687 56.1932 48.558C57.0684 47.2608 57.7932 46.1258 58.3675 45.1529C58.8872 44.3151 59.6666 43.0044 60.7059 41.2207C61.7999 39.1939 63.1948 38.9507 64.8905 40.4911C66.0939 41.5991 66.34 42.8422 65.6289 44.2205C64.1794 46.95 62.7572 49.5039 61.3623 51.8821ZM71.5366 53.5846C70.7434 53.5846 70.1007 53.3414 69.6084 52.855C69.1161 52.3685 68.8699 51.7334 68.8699 50.9497V41.0586C68.8699 40.2749 69.1161 39.6398 69.6084 39.1533C70.1007 38.6669 70.7434 38.4237 71.5366 38.4237H76.9519V34.1267H69.4033C67.5161 34.1267 66.5725 33.1808 66.5725 31.2891C66.5725 29.4244 67.5161 28.492 69.4033 28.492H76.9519V24.7626C75.4203 25.0058 73.8066 25.2085 72.1109 25.3707C71.2357 25.4517 70.5383 25.3436 70.0186 25.0464C69.5263 24.7491 69.1434 24.1951 68.8699 23.3843C68.5417 22.3844 68.6101 21.6277 69.0751 21.1142C69.4853 20.6548 70.2648 20.3575 71.4135 20.2224C76.9108 19.4927 81.3416 18.5469 84.7056 17.3848C85.4441 17.0875 86.1005 17.0335 86.6748 17.2227C87.1671 17.3848 87.7141 17.7767 88.3158 18.3982C90.1756 20.317 89.8611 21.7088 87.3722 22.5736C85.6492 23.06 84.0492 23.4519 82.5723 23.7492V28.492H89.6286C91.5158 28.492 92.4594 29.4244 92.4594 31.2891C92.4594 33.1808 91.5158 34.1267 89.6286 34.1267H82.5723V38.4237H88.1107C88.9038 38.4237 89.5466 38.6669 90.0389 39.1533C90.5312 39.6398 90.7773 40.2749 90.7773 41.0586V50.9497C90.7773 51.7334 90.5312 52.3685 90.0389 52.855C89.5466 53.3414 88.9038 53.5846 88.1107 53.5846H79.6595H71.5366ZM75.1878 48.2742H79.6595H84.1723C84.8287 48.2742 85.1569 47.9499 85.1569 47.3013V44.707C85.1569 44.0584 84.8287 43.7341 84.1723 43.7341H75.1878C74.5314 43.7341 74.2032 44.0584 74.2032 44.707V47.3013C74.2032 47.9499 74.5314 48.2742 75.1878 48.2742ZM63.5367 34.6942C62.4427 36.3428 61.0752 36.6535 59.4342 35.6266C59.0786 35.4104 58.7094 35.2077 58.3265 35.0185C58.0803 34.8834 57.7111 34.6672 57.2188 34.3699C57 34.2618 56.8496 34.1808 56.7675 34.1267C55.0718 33.2079 54.812 31.9512 55.9881 30.3567C56.918 29.0596 58.053 28.7217 59.3931 29.3433C60.1042 29.6676 61.1982 30.1946 62.6751 30.9243C63.5503 31.4107 64.0563 31.9512 64.1931 32.5458C64.3298 33.1403 64.111 33.8565 63.5367 34.6942ZM65.2187 23.6276C64.07 25.195 62.6888 25.4517 61.0752 24.3978C60.9658 24.3167 60.788 24.2086 60.5418 24.0735C60.323 23.9383 60.1589 23.8438 60.0495 23.7897C59.9128 23.6816 59.6803 23.5465 59.3521 23.3843C59.0513 23.1952 58.8188 23.06 58.6547 22.979C56.9863 22.0061 56.7675 20.7359 57.9983 19.1684C58.9829 17.9253 60.1316 17.6145 61.4444 18.2361C62.2375 18.6415 63.2632 19.182 64.5213 19.8576C65.4238 20.344 65.9161 20.898 65.9982 21.5196C66.1076 22.1142 65.8478 22.8168 65.2187 23.6276Z" fill="black"/>
</g>
<defs>
<filter id="filter0_d_1201_5441" x="202.027" y="16.7769" width="38.1641" height="38.4292" filterUnits="userSpaceOnUse" color-interpolation-filters="sRGB">
<feFlood flood-opacity="0" result="BackgroundImageFix"/>
<feColorMatrix in="SourceAlpha" type="matrix" values="0 0 0 0 0 0 0 0 0 0 0 0 0 0 0 0 0 0 127 0" result="hardAlpha"/>
<feOffset/>
<feComposite in2="hardAlpha" operator="out"/>
<feColorMatrix type="matrix" values="0 0 0 0 0.86 0 0 0 0 1 0 0 0 0 0 0 0 0 1 0"/>
<feBlend mode="normal" in2="BackgroundImageFix" result="effect1_dropShadow_1201_5441"/>
<feBlend mode="normal" in="SourceGraphic" in2="effect1_dropShadow_1201_5441" result="shape"/>
</filter>
<filter id="filter1_d_1201_5441" x="152.486" y="17.2339" width="38.5156" height="37.0723" filterUnits="userSpaceOnUse" color-interpolation-filters="sRGB">
<feFlood flood-opacity="0" result="BackgroundImageFix"/>
<feColorMatrix in="SourceAlpha" type="matrix" values="0 0 0 0 0 0 0 0 0 0 0 0 0 0 0 0 0 0 127 0" result="hardAlpha"/>
<feOffset/>
<feComposite in2="hardAlpha" operator="out"/>
<feColorMatrix type="matrix" values="0 0 0 0 0.86 0 0 0 0 1 0 0 0 0 0 0 0 0 1 0"/>
<feBlend mode="normal" in2="BackgroundImageFix" result="effect1_dropShadow_1201_5441"/>
<feBlend mode="normal" in="SourceGraphic" in2="effect1_dropShadow_1201_5441" result="shape"/>
</filter>
<filter id="filter2_d_1201_5441" x="105.055" y="16.8174" width="34.3711" height="38.0239" filterUnits="userSpaceOnUse" color-interpolation-filters="sRGB">
<feFlood flood-opacity="0" result="BackgroundImageFix"/>
<feColorMatrix in="SourceAlpha" type="matrix" values="0 0 0 0 0 0 0 0 0 0 0 0 0 0 0 0 0 0 127 0" result="hardAlpha"/>
<feOffset/>
<feComposite in2="hardAlpha" operator="out"/>
<feColorMatrix type="matrix" values="0 0 0 0 0.86 0 0 0 0 1 0 0 0 0 0 0 0 0 1 0"/>
<feBlend mode="normal" in2="BackgroundImageFix" result="effect1_dropShadow_1201_5441"/>
<feBlend mode="normal" in="SourceGraphic" in2="effect1_dropShadow_1201_5441" result="shape"/>
</filter>
<filter id="filter3_d_1201_5441" x="55.2656" y="17.1123" width="37.1934" height="36.4722" filterUnits="userSpaceOnUse" color-interpolation-filters="sRGB">
<feFlood flood-opacity="0" result="BackgroundImageFix"/>
<feColorMatrix in="SourceAlpha" type="matrix" values="0 0 0 0 0 0 0 0 0 0 0 0 0 0 0 0 0 0 127 0" result="hardAlpha"/>
<feOffset/>
<feComposite in2="hardAlpha" operator="out"/>
<feColorMatrix type="matrix" values="0 0 0 0 0.86 0 0 0 0 1 0 0 0 0 0 0 0 0 1 0"/>
<feBlend mode="normal" in2="BackgroundImageFix" result="effect1_dropShadow_1201_5441"/>
<feBlend mode="normal" in="SourceGraphic" in2="effect1_dropShadow_1201_5441" result="shape"/>
</filter>
<linearGradient id="paint0_linear_1201_5441" x1="38.0947" y1="63.3396" x2="72.9769" y2="38.334" gradientUnits="userSpaceOnUse">
<stop/>
<stop offset="1" stop-color="#666666" stop-opacity="0"/>
</linearGradient>
</defs>
</svg>
