<svg width="71" height="122" viewBox="0 0 71 122" fill="none" xmlns="http://www.w3.org/2000/svg">
<path d="M22.0238 3.85156C22.0238 3.85156 20.5238 5.65157 20.4238 6.45157C20.0238 9.15157 20.2238 14.7516 20.2238 14.7516C20.2238 14.7516 25.7238 15.8516 27.0238 14.7516C28.7238 13.2516 28.3238 5.75157 28.3238 5.75157L22.0238 3.85156Z" fill="#FFA08D"/>
<path d="M19.424 11.7504C19.424 11.7504 18.824 16.1504 18.724 20.4504C18.624 23.6504 19.224 28.8504 19.524 29.2504C19.824 29.5504 27.524 19.9504 27.524 19.9504L28.024 11.6504C28.024 11.7504 21.624 12.7504 19.424 11.7504Z" fill="#2587A5"/>
<path d="M42.6234 30.252C42.6234 30.252 48.2234 32.552 51.0234 35.052C53.8234 37.652 56.7234 40.752 59.7234 42.452C62.7234 44.1519 66.9234 44.252 69.6234 46.952C72.3234 49.552 68.0234 49.752 67.0234 49.752C65.3234 49.752 63.4234 47.9519 63.0234 48.1519C62.2234 48.5519 63.7234 49.1519 63.9234 49.6519C64.6234 51.0519 63.7234 51.052 63.0234 50.252C62.2234 49.452 61.4234 49.552 60.4234 48.552C59.6234 47.752 59.4234 47.252 58.7234 46.752C57.1234 45.552 53.3234 43.9519 51.0234 42.8519C45.2234 40.1519 44.0234 39.2519 42.7234 38.6519C40.5234 37.5519 40.0234 35.952 40.0234 35.952C40.0234 35.952 40.5234 30.852 42.6234 30.252Z" fill="#FFC5B3"/>
<path d="M24.424 55.8512L14.124 45.9512C14.124 45.9512 11.724 51.7512 10.924 55.9512C10.124 60.2512 9.82399 65.7512 10.524 70.8512C10.724 72.2512 10.024 75.9512 9.824 79.4512C9.524 84.5512 9.324 91.7512 9.124 93.0512C8.724 95.9512 7.724 96.6512 7.124 97.1512C6.224 98.0512 2.624 100.251 1.124 101.151C-0.476001 102.051 1.424 104.851 2.124 106.251C2.824 107.651 5.524 105.951 6.424 105.551C8.024 104.951 8.22399 103.551 10.024 102.551C10.924 102.051 13.424 100.851 14.024 100.151C14.624 99.4512 14.924 98.4512 14.524 97.4512C13.924 96.0512 14.224 94.7512 15.224 91.6512C16.824 86.9512 17.624 87.1512 19.024 79.9512C19.724 76.3512 18.824 73.5512 19.024 71.8512C19.024 70.1512 24.424 55.8512 24.424 55.8512Z" fill="#FFA08D"/>
<path d="M37.2235 109.951C37.1235 108.951 36.8236 107.751 36.9236 105.651C37.1236 101.051 37.8235 92.6511 37.7235 90.3511C37.3235 83.5511 35.6235 81.3511 35.5235 79.5511C35.4235 77.7511 34.4235 68.0511 34.3235 64.1511C34.1235 58.2511 33.1235 57.3511 31.7235 55.0511C29.3235 51.1511 19.3236 55.0511 20.1236 60.2511C20.9236 65.4511 26.2235 78.4511 26.7235 80.6511C27.1235 82.8511 27.4236 88.1511 27.6236 89.6511C28.3236 94.5511 31.3235 104.151 31.5235 107.951C31.6235 110.351 29.8235 114.551 29.0235 116.551C28.2235 118.551 28.7236 119.651 29.6236 120.351C30.5236 121.051 32.0236 121.551 34.1236 120.551C36.2236 119.551 36.4235 118.251 36.8235 116.451C37.3235 114.351 37.4235 111.951 37.2235 109.951Z" fill="#FFC5B3"/>
<path d="M34.6236 85.752C34.6236 85.752 33.5236 86.752 33.6236 88.052C33.6236 89.352 34.1236 90.3519 34.1236 90.3519C34.1236 90.3519 35.8236 88.452 34.6236 85.752Z" fill="#FFA08D"/>
<path d="M31.2231 52.4508C28.5231 53.7508 25.2231 54.5508 22.3231 54.3508C16.0231 53.7508 12.9231 51.2508 12.7231 49.0508C12.1231 50.8508 10.3231 54.8508 9.72308 57.0508C8.72308 60.6508 8.82309 73.3508 8.82309 73.3508C8.82309 73.3508 10.1231 75.0508 13.5231 75.7508C16.8231 76.5508 18.7231 75.7508 20.1231 74.4508C20.5231 72.7508 20.8231 70.6508 21.4231 68.2508C21.9231 69.6508 22.3231 70.8508 22.6231 71.6508C23.5231 74.1508 24.9231 78.2508 24.9231 78.2508C24.9231 78.2508 26.8231 80.9508 30.9231 79.7508C35.0231 78.5508 36.5231 76.5508 36.5231 76.5508C36.5231 76.5508 35.2231 57.2508 31.2231 52.4508Z" fill="#33222B"/>
<path d="M28.8242 53.3504C28.8242 53.3504 29.3242 55.4504 30.9242 60.4504C32.3242 64.9504 34.3242 78.2504 34.3242 78.2504L35.3242 77.6504C35.3242 77.6504 33.3242 64.0504 32.2242 60.1504C31.1242 56.2504 29.9242 53.1504 29.9242 53.1504L28.8242 53.3504Z" fill="white"/>
<path d="M13.3234 49.9512C13.3234 49.9512 12.0234 52.3512 10.8234 56.6512C9.52344 61.4512 9.52344 73.9512 9.52344 73.9512C9.52344 73.9512 9.92344 74.3512 10.6234 74.6512C10.5234 70.5512 10.7234 62.2512 11.8234 57.3512C12.9234 52.4512 14.1234 50.7512 14.1234 50.7512L13.3234 49.9512Z" fill="white"/>
<path d="M47.1236 31.5504C42.3236 28.5504 39.9236 25.8504 37.1236 25.8504C35.2236 25.8504 34.1236 25.4504 34.1236 25.4504L25.3236 20.1504C25.3236 20.1504 21.7236 22.4504 19.3236 25.4504C17.9236 27.1504 15.8236 30.7504 15.4236 34.7504C15.1236 37.1504 12.7236 44.5504 11.7236 47.6504C11.3236 48.7504 12.2236 50.2504 12.2236 50.2504C12.2236 50.2504 14.3236 52.9504 18.0236 54.4504C24.6236 57.0504 32.7236 55.0504 32.7236 55.0504C33.3236 54.4504 33.8236 53.8504 32.7236 52.6504C32.4236 52.2504 35.0236 51.5504 33.9236 50.3504C33.5236 49.9504 33.2236 49.7504 34.0236 49.0504C34.5236 48.5504 34.5236 46.9504 34.9236 45.9504C36.4236 43.3504 35.7236 39.4504 37.7236 38.7504C38.5236 38.4504 40.5236 40.4504 43.4236 40.4504C42.9236 39.4504 43.8236 34.5504 47.1236 31.5504Z" fill="#2EA6CC"/>
<path d="M34.123 20.7508L27.623 19.5508C27.023 20.9508 26.223 22.1508 25.123 23.1508C25.323 23.8508 25.923 25.9508 28.623 25.9508C31.823 26.0508 34.023 24.3508 34.023 24.3508L34.123 20.7508Z" fill="#FFA08D"/>
<path d="M38.7248 13.1508C37.9248 10.7508 33.0248 7.1508 29.0248 10.4508C28.1248 11.1508 27.4248 13.0508 26.9248 14.0508C25.1248 17.8508 25.9248 22.9508 28.0248 23.1508C29.5248 23.3508 33.2248 23.0508 35.3248 21.1508C37.7248 19.0508 39.8248 16.3508 38.7248 13.1508Z" fill="#FFC5B3"/>
<path d="M37.1234 10.0506C34.6234 6.45062 29.7234 7.65062 29.0234 10.5506C32.0234 9.45062 34.6234 11.4506 36.0234 13.4506C37.2234 15.0506 36.5234 16.9506 35.6234 18.4506C36.9234 18.6506 36.4234 20.1506 36.4234 20.1506C36.4234 20.1506 39.5234 17.9506 40.0234 14.9506C40.2234 13.8506 40.0234 12.0506 37.1234 10.0506Z" fill="#BCB6AA"/>
<path d="M34.5238 38.7505C34.3238 37.9505 35.5238 35.3505 37.1238 35.7505C38.7238 36.2505 39.6238 37.0505 39.6238 37.0505C39.6238 37.0505 35.8238 37.9505 34.5238 38.7505Z" fill="#2587A5"/>
<path d="M26.0238 22.1504L25.1238 23.1504C25.1238 23.1504 24.3238 24.6504 26.8238 26.0504C29.3238 27.4504 30.9238 26.8504 32.3238 26.2504C33.7238 25.6504 34.4238 25.3504 34.4238 25.3504L34.0238 23.8504C34.0238 23.8504 32.5238 25.0504 30.6238 25.0504C28.9238 25.0504 27.6238 24.5504 26.7238 23.8504C25.8238 23.1504 26.0238 22.1504 26.0238 22.1504Z" fill="white"/>
<path d="M31.6242 51.8516C31.6242 51.8516 29.2242 52.4516 27.1242 52.4516C25.0242 52.4516 23.3242 52.1516 23.3242 52.1516C23.3242 52.1516 24.8242 53.3516 26.8242 53.3516C28.8242 53.4516 31.1242 52.5516 31.6242 51.8516Z" fill="#2587A5"/>
<path d="M14.123 45.0508C14.123 45.0508 15.123 46.9508 17.223 47.3508C19.323 47.6508 20.123 47.3508 20.123 47.3508C20.123 47.3508 18.923 46.7508 17.123 46.2508C15.223 45.8508 14.123 45.0508 14.123 45.0508Z" fill="#2587A5"/>
<path d="M14.123 48.1504C14.223 48.1504 15.123 50.4504 16.123 51.0504C17.123 51.6504 18.523 51.8504 18.523 51.8504C18.523 51.8504 17.623 50.7504 16.623 50.0504C15.623 49.3504 14.123 48.1504 14.123 48.1504Z" fill="#2587A5"/>
<path d="M22.3242 26.8516C21.7242 27.4516 20.8242 28.2516 20.3242 29.1516L25.2242 32.8516C25.8242 32.0516 26.3242 31.1516 27.0242 30.4516L22.3242 26.8516Z" fill="white"/>
<path d="M20.4243 6.45133C20.6243 5.15133 20.8243 4.05133 21.0243 3.15133C21.3243 1.85133 21.9243 1.35133 23.0243 1.15133C24.7243 0.851325 29.0243 -0.248666 34.5243 0.0513343C40.0243 0.251334 44.0243 1.35133 46.2243 4.05133C48.2243 6.45133 47.5243 7.55133 45.1243 7.55133C42.8243 7.55133 41.4243 5.15132 40.4243 5.35132C39.4243 5.55132 40.9243 7.05132 40.7243 7.85132C40.4243 8.75132 39.9243 7.95133 39.1243 7.05133C38.1243 5.95133 37.2243 5.05133 36.2243 5.05133C34.2243 4.95133 27.0243 7.75133 27.9243 7.55133C26.5243 7.85133 20.1243 9.25133 20.4243 6.45133Z" fill="#FFA08D"/>
<path d="M26.1245 16.252C26.1245 16.252 24.5245 19.052 25.0245 21.252C25.5245 23.452 28.7245 25.052 30.9245 23.752C33.1245 22.452 33.9245 22.052 33.9245 22.052C33.9245 22.052 33.3245 21.3519 33.8245 20.3519C34.5245 18.8519 35.9245 18.552 35.9245 18.552C35.9245 18.552 36.7245 16.4519 36.4245 16.6519C35.6245 17.4519 34.1245 18.6519 33.1245 19.6519C32.5245 20.2519 30.7245 20.5519 30.1245 19.8519C29.1245 18.6519 27.9245 18.1519 27.1245 17.6519C26.4245 17.1519 26.1245 16.252 26.1245 16.252Z" fill="#BCB6AA"/>
<path d="M26.425 18.5512C26.425 18.5512 27.525 18.4512 28.325 19.0512C29.125 19.7512 29.325 20.5512 29.325 20.5512C29.325 20.5512 27.9249 21.0512 27.0249 20.2512C26.1249 19.4512 26.425 18.5512 26.425 18.5512Z" fill="#FFC5B3"/>
</svg>
